<?xml version="1.0" encoding="UTF-8" standalone="no"?>
<svg
   xmlns:dc="http://purl.org/dc/elements/1.1/"
   xmlns:cc="http://creativecommons.org/ns#"
   xmlns:rdf="http://www.w3.org/1999/02/22-rdf-syntax-ns#"
   xmlns:svg="http://www.w3.org/2000/svg"
   xmlns="http://www.w3.org/2000/svg"
   xmlns:sodipodi="http://sodipodi.sourceforge.net/DTD/sodipodi-0.dtd"
   xmlns:inkscape="http://www.inkscape.org/namespaces/inkscape"
   id="svg8"
   version="1.1"
   viewBox="0 0 32.675919 32.675919"
   height="32.675919mm"
   width="32.675919mm"
   sodipodi:docname="csv-read.svg"
   inkscape:version="0.92.4 (5da689c313, 2019-01-14)">
  <sodipodi:namedview
     pagecolor="#ffffff"
     bordercolor="#666666"
     borderopacity="1"
     objecttolerance="10"
     gridtolerance="10"
     guidetolerance="10"
     inkscape:pageopacity="0"
     inkscape:pageshadow="2"
     inkscape:window-width="1600"
     inkscape:window-height="837"
     id="namedview11"
     showgrid="false"
     inkscape:zoom="3.8218767"
     inkscape:cx="57.608876"
     inkscape:cy="64.415705"
     inkscape:window-x="-8"
     inkscape:window-y="-8"
     inkscape:window-maximized="1"
     inkscape:current-layer="svg8" />
  <defs
     id="defs2" />
  <metadata
     id="metadata5">
    <rdf:RDF>
      <cc:Work
         rdf:about="">
        <dc:format>image/svg+xml</dc:format>
        <dc:type
           rdf:resource="http://purl.org/dc/dcmitype/StillImage" />
        <dc:title></dc:title>
      </cc:Work>
    </rdf:RDF>
  </metadata>
  <circle
     style="fill:#44aa00;stroke:#338000"
     id="path815"
     cx="16.337959"
     cy="16.337959"
     r="15.99296" />
  <g
     id="Icons with numbers"
     transform="matrix(1.2604106,0,0,0.94122667,6.7563732,6.7740206)"
     style="fill:#aade87;fill-rule:evenodd;stroke:none;stroke-width:1">
    <g
       transform="translate(-336,-240)"
       id="Group"
       style="fill:#aade87">
      <path
         id="Rectangle 166"
         d="m 337,240 h 13 v 16 h -13 z m 1,1 v 2 h 5 v -2 z m 0,3 v 2 h 5 v -2 z m 0,3 v 2 h 5 v -2 z m 0,3 v 2 h 5 v -2 z m 0,3 v 2 h 5 v -2 z m 6,-12 v 2 h 5 v -2 z m 0,3 v 2 h 5 v -2 z m 0,3 v 2 h 5 v -2 z m 0,3 v 2 h 5 v -2 z m 0,3 v 2 h 5 v -2 z m 0,0"
         inkscape:connector-curvature="0"
         style="fill:#aade87" />
    </g>
  </g>
  <text
     xml:space="preserve"
     style="font-style:normal;font-weight:normal;font-size:10.58333397px;line-height:1.25;font-family:sans-serif;letter-spacing:0px;word-spacing:0px;fill:#aade87;fill-opacity:1;stroke:none;stroke-width:0.26458335"
     x="11.165714"
     y="26.010067"
     id="text4559"><tspan
       sodipodi:role="line"
       id="tspan4557"
       x="11.165714"
       y="26.010067"
       style="font-size:4.23333359px;fill:#aade87;stroke-width:0.26458335">Read</tspan></text>
</svg>
