<?xml version="1.0" encoding="UTF-8" standalone="no"?>
<!-- Created with Inkscape (http://www.inkscape.org/) -->

<svg
   xmlns:dc="http://purl.org/dc/elements/1.1/"
   xmlns:cc="http://creativecommons.org/ns#"
   xmlns:rdf="http://www.w3.org/1999/02/22-rdf-syntax-ns#"
   xmlns:svg="http://www.w3.org/2000/svg"
   xmlns="http://www.w3.org/2000/svg"
   xmlns:sodipodi="http://sodipodi.sourceforge.net/DTD/sodipodi-0.dtd"
   xmlns:inkscape="http://www.inkscape.org/namespaces/inkscape"
   width="32.675919mm"
   height="32.675919mm"
   viewBox="0 0 32.675919 32.675919"
   version="1.1"
   id="svg8"
   sodipodi:docname="drive.svg"
   inkscape:version="0.92.4 (5da689c313, 2019-01-14)">
  <defs
     id="defs2" />
  <sodipodi:namedview
     id="base"
     pagecolor="#ffffff"
     bordercolor="#666666"
     borderopacity="1.0"
     inkscape:pageopacity="0.0"
     inkscape:pageshadow="2"
     inkscape:zoom="1.4"
     inkscape:cx="-81.437441"
     inkscape:cy="53.657429"
     inkscape:document-units="mm"
     inkscape:current-layer="layer1"
     showgrid="false"
     showguides="true"
     inkscape:guide-bbox="true"
     inkscape:window-width="1600"
     inkscape:window-height="837"
     inkscape:window-x="-8"
     inkscape:window-y="-8"
     inkscape:window-maximized="1"
     inkscape:snap-others="false">
    <sodipodi:guide
       position="-7.5595239,16.158482"
       orientation="0,1"
       inkscape:locked="false"
       id="guide881" />
    <sodipodi:guide
       position="16.158482,4.8191965"
       orientation="1,0"
       inkscape:locked="false"
       id="guide883" />
  </sodipodi:namedview>
  <metadata
     id="metadata5">
    <rdf:RDF>
      <cc:Work
         rdf:about="">
        <dc:format>image/svg+xml</dc:format>
        <dc:type
           rdf:resource="http://purl.org/dc/dcmitype/StillImage" />
        <dc:title></dc:title>
      </cc:Work>
    </rdf:RDF>
  </metadata>
  <g
     inkscape:label="Layer 1"
     inkscape:groupmode="layer"
     id="layer1"
     transform="translate(-3.0333207,-3.7944787)">
    <circle
       style="fill:#2a7fff;stroke:#004de3;stroke-width:0.68999994;stroke-miterlimit:4;stroke-dasharray:none;stroke-opacity:0.5690608"
       id="path815"
       cx="19.371281"
       cy="20.132439"
       r="15.99296" />
    <g
       id="g891"
       transform="matrix(0.36344402,0,0,0.36344402,8.8572796,8.9697762)"
       style="fill:#003380">
      <polygon
         id="polygon885"
         points="13.629,51.554 13.221,52.267 14.043,52.267 45.574,52.267 45.852,52.267 45.988,52.026 52.748,40.206 53.158,39.493 52.334,39.493 20.803,39.493 20.525,39.493 20.389,39.733 "
         style="fill:#003380" />
      <polygon
         id="polygon887"
         points="52.336,36.687 53.16,36.683 52.748,35.972 36.982,8.665 36.846,8.426 36.568,8.427 22.951,8.482 22.129,8.486 22.541,9.198 38.307,36.507 38.445,36.745 38.723,36.745 "
         style="fill:#003380" />
      <polygon
         id="polygon889"
         points="19.568,9.91 19.157,10.622 3.391,37.929 3.252,38.167 3.392,38.407 10.25,50.171 10.663,50.882 11.074,50.169 26.84,22.861 26.979,22.623 26.84,22.382 19.982,10.62 "
         style="fill:#003380" />
    </g>
  </g>
</svg>
