<svg xmlns="http://www.w3.org/2000/svg" width="123.5" height="123.5" viewBox="0 0 32.676 32.676"><g transform="translate(-3.033 -3.794)"><circle cx="19.371" cy="20.132" r="15.993" fill="#2a7fff" stroke="#004de3" stroke-width=".69" stroke-opacity=".569"/><path d="M21.308 24.793v3.251q0 .217-.162.38-.163.162-.38.162h-3.25q-.217 0-.38-.162-.162-.163-.162-.38v-3.25q0-.217.162-.38.163-.162.38-.162h3.25q.217 0 .38.162.162.163.162.38zm4.28-8.127q0 .732-.21 1.368-.21.637-.473 1.036-.264.4-.745.806-.481.407-.78.59-.297.182-.825.48-.556.312-.928.88-.373.57-.373.908 0 .23-.162.44-.163.21-.38.21h-3.25q-.204 0-.346-.25t-.142-.508v-.61q0-1.124.88-2.12.88-.995 1.937-1.469.8-.366 1.138-.759.339-.392.339-1.029 0-.569-.63-1.002-.63-.434-1.456-.434-.88 0-1.463.393-.474.339-1.45 1.558-.176.216-.42.216-.162 0-.338-.108L13.29 15.57q-.177-.136-.21-.339-.034-.203.074-.379 2.167-3.603 6.285-3.603 1.084 0 2.181.42t1.978 1.124q.88.704 1.435 1.727.556 1.023.556 2.147z" fill="#162d50"/></g></svg>