<svg xmlns="http://www.w3.org/2000/svg" viewBox="0 0 32.676 32.676" height="123.5" width="123.5"><circle cx="16.338" cy="16.338" r="15.993" fill="#2a7fff" stroke="#004de3" stroke-width=".69" stroke-opacity=".569"/><path d="M18.497 12.553c.779.18 1.398.843 1.578 1.568a.724.724 0 0 0 .71.594c.397 0 .721-.324.721-.72 0-.52-.436-1.309-1.03-1.9-.584-.576-1.28-.984-1.853-.984a.732.732 0 0 0-.72.732c0 .353.255.649.594.71zm-9.907 9.45a1.433 1.433 0 0 0 0 2.025 1.428 1.428 0 0 0 2.022 0l4.14-4.138a6.305 6.305 0 0 0 9.637-5.355 6.305 6.305 0 0 0-6.306-6.307 6.305 6.305 0 0 0-5.355 9.637zm4.988-7.468a4.507 4.507 0 0 1 4.505-4.505 4.507 4.507 0 0 1 4.505 4.505 4.506 4.506 0 0 1-4.505 4.505 4.506 4.506 0 0 1-4.505-4.505z" clip-rule="evenodd" fill="#025" fill-rule="evenodd"/></svg>